    <svg
                                    xmlns="http://www.w3.org/2000/svg"
                                    x="0px"
                                    y="0px"
                                    width="100"
                                    height="100"
                                    viewBox="0,0,256,256"
                                    className="hover:animate-spin"
                                >
                                    <g
                                        fill="#ffffff"
                                        fillRule="nonzero"
                                        stroke="none"
                                        strokeWidth="1"
                                        strokeLinecap="butt"
                                        strokeLinejoin="miter"
                                        strokeMiterlimit="10"
                                        strokeDasharray=""
                                        strokeDashoffset="0"
                                        fontFamily="none"
                                        fontWeight="none"
                                        fontSize="none"
                                        textAnchor="none"
                                    >
                                        <g transform="scale(5.12,5.12)">
                                            <path d="M6.04492,15.99023v4.23047c-0.408,-0.105 -0.8978,-0.14062 -1.3418,-0.14062c-2.859,0 -4.70312,1.79269 -4.70312,4.55469c0,2.868 1.73808,4.35928 5.08008,4.36328c1.116,0 2.14978,-0.10219 3.55078,-0.36719v-12.64063zM10.24609,16.00391v2.7793h2.73633v-2.7793zM10.24609,20v5.61523c0,2.358 -0.12267,3.2553 -0.51367,4.0293c-0.373,0.757 -0.95802,1.2515 -2.16602,1.8125l2.53906,1.19727c1.208,-0.601 1.79233,-1.14386 2.23633,-2.00586c0.475,-0.896 0.63672,-1.93566 0.63672,-4.09766v-6.55078zM45.56641,20c-2.809,0 -4.56141,1.76189 -4.56641,4.58789c0,2.722 1.69808,4.41211 4.45508,4.41211c2.792,0 4.54492,-1.75936 4.54492,-4.56836c0,-2.74 -1.68059,-4.43164 -4.43359,-4.43164zM18.08398,20.08008c-1.21,0 -2.31756,0.24764 -3.47656,0.80664l0.00391,2.08789c1.024,-0.543 2.11398,-0.82422 3.08398,-0.82422c0.662,0 0.90234,0.17797 0.90234,0.66797v0.59375c-3.22,0.278 -4.53125,1.15483 -4.53125,3.04883c0,1.751 0.9875,2.53906 3.1875,2.53906c1.088,0 2.57109,-0.12483 3.74609,-0.29883v-5.48242c0,-1.122 -0.07102,-1.64778 -0.29102,-2.05078c-0.392,-0.72 -1.277,-1.08789 -2.625,-1.08789zM26.91797,20.08008c-1.348,0 -2.67892,0.19128 -4.29492,0.61328v8.19727h2.73242v-6.4375c0.55,-0.16 0.88576,-0.19336 1.25977,-0.19336c0.975,0 1.43164,0.38678 1.43164,1.42578v5.20508h2.63672v-5.3125c0,-1.353 -0.18105,-1.98741 -0.74805,-2.56641c-0.602,-0.614 -1.61658,-0.93164 -3.01758,-0.93164zM37.78516,20.0957c-3.993,0 -6.25,1.73836 -6.25,4.81836c0,2.48 1.52387,4.04688 3.92188,4.04688c0.708,0 1.24339,-0.10714 1.77539,-0.36914v0.05078c0,1.723 -0.76464,2.44531 -2.55664,2.44531c-1.015,0 -1.97269,-0.22675 -2.92969,-0.71875h-0.00195v2.50195c0.958,0.37 1.88027,0.52734 2.94727,0.52734c2.096,0 3.57183,-0.6527 4.42383,-1.9707c0.584,-0.899 0.78125,-1.9895 0.78125,-4.3125v-0.73828c-0.018,-0.37 -0.01716,-0.73937 -0.03516,-1.10937l-0.01758,-1.47852l-0.03516,-1.14453v-0.2832c0.549,0.052 -0.11863,-0.06578 0.60938,0.07422l0.9375,-1.95312c-1.313,-0.265 -2.39731,-0.38672 -3.57031,-0.38672zM45.52734,22.1582c1.056,0 1.66211,0.87089 1.66211,2.33789c0,1.484 -0.62269,2.33984 -1.67969,2.33984c-1.071,0 -1.70117,-0.85584 -1.70117,-2.33984c0,-1.484 0.62575,-2.33789 1.71875,-2.33789zM4.9707,22.25977c0.3374,0 0.7525,0.03606 1.07227,0.14063v4.34766c-0.391,0.052 -0.78684,0.07031 -1.08984,0.07031c-1.401,0 -2.16602,-0.79633 -2.16602,-2.23633c0,-1.479 0.79959,-2.32227 2.18359,-2.32227zM36.89453,22.27734h0.19727h0.08789v0.20898l0.01758,0.89648l0.01758,1.25c0,0.369 0.01758,0.72206 0.01758,1.03906v0.73828v0.19727c-0.352,0.105 -0.65434,0.17383 -1.02734,0.17383c-1.208,0 -1.88477,-0.77591 -1.88477,-2.12891c0,-0.949 0.33719,-1.61828 0.99219,-1.98828c0.426,-0.265 1.05003,-0.40372 1.58203,-0.38672zM18.7168,25.17773v1.80664c-0.51,0.087 -0.86972,0.12305 -1.26172,0.12305c-0.717,0 -1.04102,-0.24648 -1.04102,-0.77148c0,-0.701 0.56574,-0.9842 2.30273,-1.1582z"></path>
                                        </g>
                                    </g>
                                </svg>